HIERARCHY
ROOT Hips
{
	OFFSET 0.000000 0.000000 0.000000
	CHANNELS 6 Xposition Yposition Zposition Xrotation Yrotation Zrotation
	JOINT LeftUpLeg_virtual
	{
		OFFSET 0.000000 0.000000 0.000000
		CHANNELS 3 Xrotation Yrotation Zrotation
		JOINT LeftUpLeg
		{
			OFFSET 13.026900 -6.336304 -1.092800
			CHANNELS 3 Xrotation Yrotation Zrotation
			JOINT LeftLeg
			{
				OFFSET 0.524474 -46.096886 9.782700
				CHANNELS 3 Xrotation Yrotation Zrotation
				JOINT LeftFoot
				{
					OFFSET -0.524474 -53.427422 -12.948200
					CHANNELS 3 Xrotation Yrotation Zrotation
					JOINT LeftToeBase
					{
						OFFSET 0.192200 -14.009700 16.364100
						CHANNELS 3 Xrotation Yrotation Zrotation
						JOINT LeftToe_End
						{
							OFFSET -1.784700 -0.561700 9.474800
							CHANNELS 3 Xrotation Yrotation Zrotation
							End Site
							{
								OFFSET 0 0 0
							}
						}
					}
				}
			}
		}
	}
	JOINT RightUpLeg_virtual
	{
		OFFSET 0.000000 0.000000 0.000000
		CHANNELS 3 Xrotation Yrotation Zrotation
		JOINT RightUpLeg
		{
			OFFSET -12.883000 -6.336304 -1.092800
			CHANNELS 3 Xrotation Yrotation Zrotation
			JOINT RightLeg
			{
				OFFSET -0.524587 -46.096825 9.782800
				CHANNELS 3 Xrotation Yrotation Zrotation
				JOINT RightFoot
				{
					OFFSET 0.524587 -53.427383 -12.948300
					CHANNELS 3 Xrotation Yrotation Zrotation
					JOINT RightToeBase
					{
						OFFSET -0.192200 -14.009700 16.364100
						CHANNELS 3 Xrotation Yrotation Zrotation
						JOINT RightToe_End
						{
							OFFSET 1.784700 -0.561700 9.474800
							CHANNELS 3 Xrotation Yrotation Zrotation
							End Site
							{
								OFFSET 0 0 0
							}
						}
					}
				}
			}
		}
	}
	JOINT Spine_virtual
	{
		OFFSET 0.000000 0.000000 0.000000
		CHANNELS 3 Xrotation Yrotation Zrotation
		JOINT Spine
		{
			OFFSET 0.072000 7.257294 -0.789700
			CHANNELS 3 Xrotation Yrotation Zrotation
			JOINT Spine1
			{
				OFFSET 0.000000 12.508769 -0.658067
				CHANNELS 3 Xrotation Yrotation Zrotation
				JOINT Spine1_split
				{
					OFFSET 0.000000 12.508769 -0.658067
					CHANNELS 3 Xrotation Yrotation Zrotation
					JOINT Spine2
					{
						OFFSET 0.000000 12.508769 -0.658067
						CHANNELS 3 Xrotation Yrotation Zrotation
						JOINT Neck_virtual
						{
							OFFSET 0.000000 0.000000 0.000000
							CHANNELS 3 Xrotation Yrotation Zrotation
							JOINT Neck
							{
								OFFSET 0.000000 14.033295 7.520400
								CHANNELS 3 Xrotation Yrotation Zrotation
								JOINT Head
								{
									OFFSET 0.000000 8.198502 5.703100
									CHANNELS 3 Xrotation Yrotation Zrotation
									JOINT HeadTop_End
									{
										OFFSET 0.000000 17.760803 13.332701
										CHANNELS 3 Xrotation Yrotation Zrotation
										End Site
										{
											OFFSET 0 0 0
										}
									}
								}
							}
						}
						JOINT LeftShoulder_virtual
						{
							OFFSET 0.000000 0.000000 0.000000
							CHANNELS 3 Xrotation Yrotation Zrotation
							JOINT LeftShoulder
							{
								OFFSET 6.292450 5.785301 -0.669000
								CHANNELS 3 Xrotation Yrotation Zrotation
								JOINT LeftShoulder_split
								{
									OFFSET 6.292450 5.785301 -0.669000
									CHANNELS 3 Xrotation Yrotation Zrotation
									JOINT LeftArm
									{
										OFFSET 13.907140 -6.093903 1.965100
										CHANNELS 3 Xrotation Yrotation Zrotation
										JOINT LeftForeArm
										{
											OFFSET 34.140198 0.000000 0.000000
											CHANNELS 3 Xrotation Yrotation Zrotation
											JOINT LeftHand
											{
												OFFSET 40.960209 0.000000 0.000000
												CHANNELS 3 Xrotation Yrotation Zrotation
												End Site
												{
													OFFSET 0 0 0
												}
											}
										}
									}
								}
							}
						}
						JOINT RightShoulder_virtual
						{
							OFFSET 0.000000 0.000000 0.000000
							CHANNELS 3 Xrotation Yrotation Zrotation
							JOINT RightShoulder
							{
								OFFSET -6.292450 5.785301 -0.669000
								CHANNELS 3 Xrotation Yrotation Zrotation
								JOINT RightShoulder_split
								{
									OFFSET -6.292450 5.785301 -0.669000
									CHANNELS 3 Xrotation Yrotation Zrotation
									JOINT RightArm
									{
										OFFSET -13.907140 -6.093903 1.965100
										CHANNELS 3 Xrotation Yrotation Zrotation
										JOINT RightForeArm
										{
											OFFSET -34.140198 0.000000 0.000000
											CHANNELS 3 Xrotation Yrotation Zrotation
											JOINT RightHand
											{
												OFFSET -40.960209 0.000000 0.000000
												CHANNELS 3 Xrotation Yrotation Zrotation
												End Site
												{
													OFFSET 0 0 0
												}
											}
										}
									}
								}
							}
						}
					}
				}
			}
		}
	}
}
MOTION
Frames: 4
Frame Time: 0.03333333
-11.488755 84.308929 17.756428 0.000000 0.000000 0.000000 7.720324 35.206463 -3.536881 -79.725998 -6.175130 -32.480398 73.812454 -33.950381 12.156298 14.732165 8.306056 0.670354 -0.126845 0.000304 0.029176 0.000000 0.000000 0.000000 9.862747 38.189056 -4.995758 18.517835 -34.399257 3.668648 56.620919 16.715180 -9.731570 -22.141325 0.017455 -5.895674 -41.522953 -6.581797 5.639215 0.000000 0.000000 0.000000 10.696304 42.924334 -6.675104 6.542916 13.842569 0.195823 3.168515 16.381662 0.029872 1.159973 1.416556 0.641078 0.000000 0.000000 0.000000 2.681296 15.385764 -0.514089 18.365446 -31.492452 3.388863 -22.669763 -36.313435 -1.591109 0.000000 0.000000 0.000000 2.730121 16.358810 -0.840945 2.120401 -4.623066 -6.397296 -3.088209 -8.638953 -2.663032 -32.880818 9.872901 -25.661169 50.236451 -3.100198 17.388700 0.000000 0.000000 0.000000 3.852129 16.453169 -1.051494 0.394118 8.250761 -15.372418 -5.359210 4.871705 3.065850 -17.622781 -19.785965 3.573209 -33.664165 29.748974 10.139906 0.000000 0.000000 0.000000 
-11.006507 84.746986 17.818832 0.000000 0.000000 0.000000 8.478340 33.582725 -3.893062 -79.295334 -6.079518 -30.687903 73.641788 -33.191311 11.913134 14.244290 7.744421 0.598955 -0.508203 0.029291 0.261394 0.000000 0.000000 0.000000 10.746323 36.868207 -5.257323 17.673266 -33.084548 2.785562 55.703304 16.581792 -9.539959 -22.351917 0.107675 -6.323620 -40.551793 -6.356463 5.623447 0.000000 0.000000 0.000000 11.444417 41.979022 -7.440634 6.499635 13.520056 0.396253 3.372482 15.944189 -0.241033 1.173692 1.070568 0.768948 0.000000 0.000000 0.000000 2.795911 14.945721 -0.785721 17.294483 -31.069817 2.598648 -22.422831 -37.454145 -0.550725 0.000000 0.000000 0.000000 2.940182 15.895150 -1.226103 2.051751 -4.781420 -6.253405 -4.131792 -8.566371 -1.966789 -27.060755 13.537057 -25.013701 50.251297 -3.042556 18.892781 0.000000 0.000000 0.000000 3.932242 16.079058 -1.223264 0.197067 7.213440 -15.723934 -5.793620 3.969533 2.468409 -22.380932 -17.898043 4.469381 -32.853278 31.144447 12.595209 0.000000 0.000000 0.000000 
-10.420713 85.270119 17.847256 0.000000 0.000000 0.000000 9.008449 30.867746 -4.222262 -78.362569 -5.948192 -28.169823 73.101664 -32.084349 11.370160 13.193690 7.096256 0.977772 -1.106327 0.061185 0.533893 0.000000 0.000000 0.000000 11.277829 34.391806 -5.416392 16.815012 -31.191852 1.597983 54.273233 16.865699 -9.364911 -21.761007 0.133513 -5.940399 -40.409913 -6.170524 5.613477 0.000000 0.000000 0.000000 11.688531 39.975687 -7.895897 6.601382 13.048119 0.707170 3.643973 15.491678 -0.442788 0.798502 1.211962 0.653058 0.000000 0.000000 0.000000 3.034106 14.522360 -0.966184 15.561365 -30.493789 1.651101 -22.220245 -38.213638 0.513156 0.000000 0.000000 0.000000 3.136041 15.499661 -1.482555 1.841310 -4.440422 -5.739661 -5.120807 -8.868149 -1.418447 -20.498035 17.598630 -24.871944 50.252656 -2.127282 20.093088 0.000000 0.000000 0.000000 4.002678 15.721844 -1.326778 -0.292457 5.677281 -16.729958 -5.156703 3.422288 1.810130 -29.776251 -13.776155 6.300370 -31.068311 31.427770 14.040602 0.000000 0.000000 0.000000 
-9.706384 85.888519 17.819218 0.000000 0.000000 0.000000 9.247894 27.238765 -4.330898 -77.041365 -5.723922 -25.151688 72.176385 -30.708838 10.511234 11.747746 6.304379 1.731034 -1.821421 0.097566 0.801283 0.000000 0.000000 0.000000 11.409108 30.948543 -5.343832 15.891586 -28.997971 0.045065 52.797451 17.558675 -9.236379 -20.642316 0.200134 -4.523246 -41.116608 -6.087211 5.619989 0.000000 0.000000 0.000000 11.389973 36.782368 -7.819729 6.903908 12.456650 1.040236 3.953576 15.038284 -0.564896 0.570600 1.486300 0.591454 0.000000 0.000000 0.000000 3.262113 14.113681 -1.065691 13.488550 -29.559949 0.782721 -22.122238 -38.146815 1.374811 0.000000 0.000000 0.000000 3.277970 15.136138 -1.620911 1.519099 -3.558605 -4.974384 -6.039456 -9.303344 -1.232473 -13.149075 21.812750 -25.705892 50.088967 -0.514250 21.076330 0.000000 0.000000 0.000000 4.122375 15.418023 -1.383241 -0.946249 3.980077 -17.817955 -3.769680 3.323402 1.302763 -38.140562 -7.506484 9.532332 -27.956214 30.011800 13.879802 0.000000 0.000000 0.000000 
